<?xml version="1.0" standalone="no"?><!DOCTYPE svg PUBLIC "-//W3C//DTD SVG 1.1//EN" "http://www.w3.org/Graphics/SVG/1.1/DTD/svg11.dtd"><svg t="1729079855741" class="icon" viewBox="0 0 1024 1024" version="1.1" xmlns="http://www.w3.org/2000/svg" p-id="1543" xmlns:xlink="http://www.w3.org/1999/xlink" width="200" height="200"><path d="M984.269 447.283l-95.437-95.232V217.293c0-48.128-39.117-87.245-87.245-87.245H666.83l-95.232-95.232c-16.384-16.384-37.683-24.986-59.187-25.6h-4.916c-21.504 0.614-42.803 9.216-59.187 25.6l-95.232 95.232H218.317c-48.333 0-87.245 39.117-87.245 87.245V352.05L35.84 447.283c-16.998 16.999-25.6 39.322-25.6 61.85 0 22.323 8.602 44.646 25.6 61.645l95.232 95.232v134.758c0 48.128 39.117 87.245 87.245 87.245h134.758l95.232 95.232c34.202 33.997 89.293 33.997 123.495 0l95.232-95.232h134.758c48.128 0 87.245-39.117 87.245-87.245V666.01l95.232-95.232c33.997-33.997 33.997-89.293 0-123.495z" fill="#F7B400" p-id="1544"></path><path d="M657.408 579.174c-8.806-73.932-71.68-131.276-148.07-131.276-76.186 0-139.06 57.344-147.866 131.276-61.645 1.844-111.206 52.634-111.206 114.688 0 63.488 51.404 114.688 114.892 114.688H654.95c63.488 0 114.688-51.404 114.688-114.688 0-62.464-49.97-113.254-112.23-114.688z" fill="#FFFFFF" p-id="1545"></path><path d="M628.326 443.802c0 20.48 16.59 37.068 37.07 37.068s37.068-16.588 37.068-37.068c0-20.48-16.589-37.07-37.069-37.07-20.48 0-37.069 16.59-37.069 37.07z m-312.115 0c0 20.48 16.589 37.068 37.069 37.068 20.48 0 37.069-16.588 37.069-37.068 0-20.48-16.589-37.07-37.069-37.07-20.48 0-37.069 16.59-37.069 37.07z m283.443 135.372H419.021c-16.794 0-31.744 22.733-7.373 40.756l59.597 44.646s16.384 11.878 37.888 11.674c21.504 0.204 37.888-11.674 37.888-11.674l59.597-44.646c24.576-18.023 9.83-40.756-6.964-40.756z" p-id="1546"></path></svg>